<svg width="70" height="48" viewBox="0 0 70 48" fill="none" xmlns="http://www.w3.org/2000/svg">
<path id="Vector" d="M36.1979 23.8551C37.5976 22.3107 38.6719 20.549 39.421 18.5702C40.17 16.5914 40.5436 14.5402 40.5417 12.4166C40.5417 10.293 40.1671 8.24176 39.4181 6.26294C38.669 4.28412 37.5956 2.52249 36.1979 0.978044C39.0938 1.36416 41.507 2.64315 43.4375 4.81502C45.3681 6.9869 46.3333 9.52075 46.3333 12.4166C46.3333 15.3124 45.3681 17.8463 43.4375 20.0181C41.507 22.19 39.0938 23.469 36.1979 23.8551ZM50.7495 47.1666C51.1839 46.8287 51.5217 46.4059 51.763 45.8982C52.0043 45.3905 52.125 44.8238 52.125 44.1983V38.4791C52.125 36.7416 51.7389 35.0881 50.9667 33.5185C50.1945 31.949 49.1809 30.5619 47.926 29.3572C50.3875 30.226 52.6685 31.3486 54.7689 32.7251C56.8693 34.1015 57.9186 36.0196 57.9167 38.4791V44.2707C57.9167 45.0912 57.6387 45.7795 57.0827 46.3355C56.5267 46.8915 55.8394 47.1685 55.0208 47.1666H50.7495ZM60.8125 26.8957C59.992 26.8957 59.3038 26.6177 58.7478 26.0617C58.1918 25.5057 57.9147 24.8185 57.9167 23.9999V21.1041H55.0208C54.2004 21.1041 53.5121 20.8261 52.9561 20.2701C52.4001 19.7141 52.1231 19.0268 52.125 18.2082C52.125 17.3878 52.403 16.6995 52.959 16.1435C53.515 15.5875 54.2023 15.3105 55.0208 15.3124H57.9167V12.4166C57.9167 11.5961 58.1947 10.9079 58.7507 10.3519C59.3067 9.79585 59.9939 9.51882 60.8125 9.52075C61.633 9.52075 62.3212 9.79875 62.8772 10.3548C63.4332 10.9108 63.7103 11.598 63.7083 12.4166V15.3124H66.6042C67.4247 15.3124 68.1129 15.5904 68.6689 16.1464C69.2249 16.7024 69.5019 17.3897 69.5 18.2082C69.5 19.0287 69.222 19.717 68.666 20.273C68.11 20.829 67.4227 21.106 66.6042 21.1041H63.7083V23.9999C63.7083 24.8204 63.4303 25.5086 62.8743 26.0646C62.3183 26.6206 61.6311 26.8977 60.8125 26.8957ZM23.1667 23.9999C19.9813 23.9999 17.2543 22.8657 14.9859 20.5973C12.7175 18.3289 11.5833 15.602 11.5833 12.4166C11.5833 9.23117 12.7175 6.50426 14.9859 4.23586C17.2543 1.96745 19.9813 0.833252 23.1667 0.833252C26.3521 0.833252 29.079 1.96745 31.3474 4.23586C33.6158 6.50426 34.75 9.23117 34.75 12.4166C34.75 15.602 33.6158 18.3289 31.3474 20.5973C29.079 22.8657 26.3521 23.9999 23.1667 23.9999ZM2.89584 47.1666C2.07536 47.1666 1.38711 46.8886 0.831114 46.3326C0.275114 45.7766 -0.00192054 45.0893 1.00202e-05 44.2707V39.0582C1.00202e-05 37.4173 0.422802 35.9085 1.26838 34.5321C2.11397 33.1556 3.23562 32.1063 4.63334 31.3843C7.6257 29.8881 10.6663 28.7655 13.7552 28.0164C16.8441 27.2674 19.9813 26.8938 23.1667 26.8957C26.3521 26.8957 29.4892 27.2703 32.5781 28.0193C35.667 28.7684 38.7076 29.89 41.7 31.3843C43.0997 32.1082 44.2223 33.1585 45.0679 34.535C45.9134 35.9114 46.3353 37.4192 46.3333 39.0582V44.2707C46.3333 45.0912 46.0553 45.7795 45.4993 46.3355C44.9433 46.8915 44.2561 47.1685 43.4375 47.1666H2.89584ZM23.1667 18.2082C24.7594 18.2082 26.1233 17.6407 27.2585 16.5055C28.3937 15.3703 28.9603 14.0074 28.9583 12.4166C28.9583 10.8239 28.3908 9.45994 27.2556 8.32477C26.1204 7.1896 24.7575 6.62299 23.1667 6.62492C21.574 6.62492 20.21 7.1925 19.0749 8.32767C17.9397 9.46283 17.3731 10.8258 17.375 12.4166C17.375 14.0093 17.9426 15.3732 19.0778 16.5084C20.2129 17.6436 21.5759 18.2102 23.1667 18.2082ZM5.79168 41.3749H40.5417V39.0582C40.5417 38.5273 40.4085 38.0447 40.142 37.6103C39.8756 37.176 39.5262 36.8381 39.0938 36.5968C36.4875 35.2937 33.8571 34.3168 31.2026 33.6662C28.5481 33.0156 25.8695 32.6893 23.1667 32.6874C20.4639 32.6874 17.7853 33.0137 15.1307 33.6662C12.4762 34.3187 9.84584 35.2956 7.23959 36.5968C6.80522 36.8381 6.45482 37.176 6.18841 37.6103C5.92199 38.0447 5.78975 38.5273 5.79168 39.0582V41.3749Z" fill="#FAFAFA"/>
</svg>
