<svg width="75" height="56" viewBox="0 0 75 56" fill="none" xmlns="http://www.w3.org/2000/svg">
<path id="Vector" d="M57.9545 50.1591C60.7841 50.1591 63.0682 47.875 63.0682 45.0455C63.0682 42.2159 60.7841 39.9318 57.9545 39.9318C55.125 39.9318 52.8409 42.2159 52.8409 45.0455C52.8409 47.875 55.125 50.1591 57.9545 50.1591ZM63.0682 19.4773H54.5455V28H69.75L63.0682 19.4773ZM17.0455 50.1591C19.875 50.1591 22.1591 47.875 22.1591 45.0455C22.1591 42.2159 19.875 39.9318 17.0455 39.9318C14.2159 39.9318 11.9318 42.2159 11.9318 45.0455C11.9318 47.875 14.2159 50.1591 17.0455 50.1591ZM64.7727 14.3637L75 28V45.0455H68.1818C68.1818 50.7046 63.6136 55.2728 57.9545 55.2728C52.2955 55.2728 47.7273 50.7046 47.7273 45.0455H27.2727C27.2727 50.7046 22.7045 55.2728 17.0455 55.2728C11.3864 55.2728 6.81818 50.7046 6.81818 45.0455H0V7.54548C0 3.76139 3.03409 0.727295 6.81818 0.727295H54.5455V14.3637H64.7727ZM6.81818 7.54548V38.2273H9.40909C11.2841 36.1478 14.0114 34.8182 17.0455 34.8182C20.0795 34.8182 22.8068 36.1478 24.6818 38.2273H47.7273V7.54548H6.81818ZM30.6818 10.9546L42.6136 22.8864L30.6818 34.8182V26.2955H13.6364V19.4773H30.6818V10.9546Z" fill="#FAFAFA"/>
</svg>
