<svg width="14" height="18" viewBox="0 0 14 18" fill="none" xmlns="http://www.w3.org/2000/svg">
<path d="M11.0847 17.168C10.8287 17.168 10.6047 17.128 10.4127 17.048C10.2207 16.968 10.0607 16.856 9.93269 16.712C9.82069 16.568 9.71669 16.416 9.62069 16.256L6.52469 11.6C6.28469 11.216 6.02869 10.904 5.75669 10.664C5.50069 10.424 5.21269 10.256 4.89269 10.16C4.57269 10.064 4.18869 10.016 3.74069 10.016H1.17269C0.836688 10.016 0.580688 9.928 0.404688 9.752C0.228688 9.56 0.140688 9.312 0.140688 9.008C0.140688 8.688 0.228688 8.448 0.404688 8.288C0.580688 8.112 0.836688 8.024 1.17269 8.024H5.10869C6.38869 8.024 7.34869 7.776 7.98869 7.28C8.62869 6.768 8.97269 6 9.02069 4.976L9.38069 5.552H1.10069C0.796688 5.552 0.556688 5.48 0.380688 5.336C0.220688 5.176 0.140688 4.952 0.140688 4.664C0.140688 4.392 0.220688 4.184 0.380688 4.04C0.556688 3.88 0.796688 3.8 1.10069 3.8H9.38069L8.97269 4.352C8.84469 3.52 8.46869 2.896 7.84469 2.48C7.23669 2.048 6.37269 1.832 5.25269 1.832H1.10069C0.796688 1.832 0.556688 1.76 0.380688 1.616C0.220688 1.456 0.140688 1.232 0.140688 0.943999C0.140688 0.671999 0.220688 0.463999 0.380688 0.319999C0.556688 0.159999 0.796688 0.079999 1.10069 0.079999H12.9087C13.2287 0.079999 13.4687 0.159999 13.6287 0.319999C13.8047 0.463999 13.8927 0.671999 13.8927 0.943999C13.8927 1.232 13.8047 1.456 13.6287 1.616C13.4687 1.76 13.2287 1.832 12.9087 1.832H9.04469L9.38069 1.28C9.97269 1.584 10.4367 1.984 10.7727 2.48C11.1087 2.976 11.3167 3.552 11.3967 4.208L10.9167 3.8H12.9087C13.2287 3.8 13.4687 3.88 13.6287 4.04C13.8047 4.184 13.8927 4.392 13.8927 4.664C13.8927 4.952 13.8047 5.176 13.6287 5.336C13.4687 5.48 13.2287 5.552 12.9087 5.552H10.9887L11.4447 4.88C11.4767 5.904 11.2607 6.792 10.7967 7.544C10.3487 8.296 9.69269 8.88 8.82869 9.296C7.98069 9.696 6.94869 9.896 5.73269 9.896V9.656H6.26069C6.91669 9.656 7.49269 9.8 7.98869 10.088C8.48469 10.376 8.97269 10.88 9.45269 11.6L11.9967 15.416C12.1887 15.704 12.2687 15.984 12.2367 16.256C12.2207 16.512 12.1087 16.728 11.9007 16.904C11.7087 17.08 11.4367 17.168 11.0847 17.168Z" fill="#AB4E1A"/>
</svg>
